<?xml version="1.0" encoding="iso-8859-1"?>
<!-- Generator: Adobe Illustrator 19.0.0, SVG Export Plug-In . SVG Version: 6.00 Build 0)  -->
<svg version="1.1" id="Layer_1" xmlns="http://www.w3.org/2000/svg" xmlns:xlink="http://www.w3.org/1999/xlink" x="0px" y="0px"
	 viewBox="0 0 511.998 511.998" style="enable-background:new 0 0 511.998 511.998;" xml:space="preserve">
<g>
	<g>
		<path d="M392.805,120.078c-18.605,16.322-38.346,15.117-45.413,15.117v208.018c0,33.995-27.558,61.553-61.553,61.553
			c-33.995,0-61.553-27.558-61.553-61.553V135.195h-5.791c-15.459,0-29.58-5.804-40.325-15.334
			c-8.686-7.704-15.154-17.846-18.328-29.347c-34.775,12.554-59.703,45.882-59.703,84.931v246.284
			c0,49.775,40.495,90.268,90.268,90.268H321.59c49.775,0,90.269-40.495,90.269-90.268V175.445
			C411.857,154.59,404.728,135.379,392.805,120.078z M166.594,370.539c-12.526,0-22.682-10.156-22.682-22.682
			c0-12.528,10.155-22.682,22.682-22.682c12.526,0,22.682,10.155,22.682,22.682C189.276,360.383,179.12,370.539,166.594,370.539z
			 M166.594,298.588c-12.528,0-22.682-10.155-22.682-22.682c0-12.528,10.156-22.682,22.682-22.682s22.682,10.155,22.682,22.682
			C189.276,288.434,179.12,298.588,166.594,298.588z M166.594,230.113c-12.526,0-22.682-10.155-22.682-22.682
			s10.156-22.682,22.682-22.682s22.682,10.156,22.682,22.682S179.12,230.113,166.594,230.113z"/>
	</g>
</g>
<g>
	<g>
		<path d="M352.731,0H218.493c-15.192,0-27.508,12.315-27.508,27.508v46.835c0.001,15.192,12.316,27.507,27.508,27.507h34.428
			c0,15.744,0,204.831,0,211.677c0,9.208,7.465,16.672,16.672,16.672h32.035c9.208,0,16.672-7.465,16.672-16.672
			c0-6.846,0-195.918,0-211.677h34.428c15.192,0,27.507-12.315,27.507-27.508V27.508C380.238,12.315,367.923,0,352.731,0z"/>
	</g>
</g>
<g>
</g>
<g>
</g>
<g>
</g>
<g>
</g>
<g>
</g>
<g>
</g>
<g>
</g>
<g>
</g>
<g>
</g>
<g>
</g>
<g>
</g>
<g>
</g>
<g>
</g>
<g>
</g>
<g>
</g>
</svg>
