<?xml version="1.0" encoding="iso-8859-1"?>
<!-- Generator: Adobe Illustrator 19.0.0, SVG Export Plug-In . SVG Version: 6.00 Build 0)  -->
<svg version="1.1" id="Layer_1" xmlns="http://www.w3.org/2000/svg" xmlns:xlink="http://www.w3.org/1999/xlink" x="0px" y="0px"
	 viewBox="0 0 512 512" style="enable-background:new 0 0 512 512;" xml:space="preserve">
<g>
	<g>
		<path d="M339.478,11.13h-44.522c-4.424,0-8.674,1.761-11.804,4.892l-21.837,21.837C225.23,13.108,183.328,0,139.13,0H55.652
			C37.239,0,22.261,14.978,22.261,33.391v33.391c0,18.413,14.978,33.391,33.391,33.391h83.478c17.832,0,35.147,4.021,50.932,11.71
			c-0.505,1.606-0.845,3.269-0.845,4.985v100.174c0,27.619,22.468,50.087,50.087,50.087H256v50.087
			c0,46.032,37.446,83.478,83.478,83.478h50.087v77.913c0,18.413,14.978,33.391,33.391,33.391h33.391
			c18.413,0,33.391-14.978,33.391-33.391V161.391C489.739,78.539,422.337,11.13,339.478,11.13z M212.916,86.259
			c-22.47-12.731-47.692-19.476-73.786-19.476H55.652V33.391h83.478c35.256,0,68.787,9.886,98.093,28.56L212.916,86.259z
			 M389.565,367.304h-50.087c-27.619,0-50.087-22.468-50.087-50.087V267.13h50.087c5.149,0,10.021,1.005,14.699,2.455
			c-3.612,13.653-12.058,25.806-23.959,33.741c-7.674,5.114-9.75,15.478-4.63,23.152c3.218,4.826,8.51,7.435,13.902,7.435
			c3.184,0,6.402-0.907,9.25-2.805c14.829-9.884,26.323-23.915,33.282-39.995c4.695,7.624,7.543,16.51,7.543,26.103V367.304z
			 M456.348,478.609h-33.391v-77.913h33.391V478.609z"/>
	</g>
</g>
<g>
</g>
<g>
</g>
<g>
</g>
<g>
</g>
<g>
</g>
<g>
</g>
<g>
</g>
<g>
</g>
<g>
</g>
<g>
</g>
<g>
</g>
<g>
</g>
<g>
</g>
<g>
</g>
<g>
</g>
</svg>
